<mxfile host="www.draw.io" modified="2020-02-13T05:48:41.975Z" agent="Mozilla/5.0 (Windows NT 10.0; Win64; x64) AppleWebKit/537.36 (KHTML, like Gecko) Chrome/80.0.3987.100 Safari/537.36" etag="2_cIgidX82uWXSt0xrNf" version="12.6.8" type="github" pages="3">
  <diagram id="kWIRDpr4MuSIUFzdemin" name="8.1: Display Dept Selection Screen">
    <mxGraphModel dx="1038" dy="580" grid="1" gridSize="10" guides="1" tooltips="1" connect="1" arrows="1" fold="1" page="1" pageScale="1" pageWidth="850" pageHeight="1100" math="0" shadow="0">
      <root>
        <mxCell id="0"/>
        <mxCell id="1" parent="0"/>
        <mxCell id="BT1aQ9urPEgXNWsOUUMs-1" value="8.1&lt;br&gt;Display Department Selection Screen" style="whiteSpace=wrap;html=1;aspect=fixed;" vertex="1" parent="1">
          <mxGeometry x="350" y="50" width="80" height="80" as="geometry"/>
        </mxCell>
        <mxCell id="BT1aQ9urPEgXNWsOUUMs-2" value="" style="endArrow=classic;html=1;" edge="1" parent="1">
          <mxGeometry width="50" height="50" relative="1" as="geometry">
            <mxPoint x="180" y="490" as="sourcePoint"/>
            <mxPoint x="180" y="490" as="targetPoint"/>
          </mxGeometry>
        </mxCell>
        <mxCell id="BT1aQ9urPEgXNWsOUUMs-3" value="8.1.3&lt;br&gt;Display List of Departments" style="whiteSpace=wrap;html=1;aspect=fixed;" vertex="1" parent="1">
          <mxGeometry x="480" y="250" width="80" height="80" as="geometry"/>
        </mxCell>
        <mxCell id="BT1aQ9urPEgXNWsOUUMs-4" value="" style="endArrow=classic;html=1;exitX=0;exitY=1;exitDx=0;exitDy=0;entryX=0.5;entryY=0;entryDx=0;entryDy=0;strokeWidth=2;" edge="1" parent="1" source="BT1aQ9urPEgXNWsOUUMs-11" target="BT1aQ9urPEgXNWsOUUMs-10">
          <mxGeometry width="50" height="50" relative="1" as="geometry">
            <mxPoint x="260" y="390" as="sourcePoint"/>
            <mxPoint x="190" y="450" as="targetPoint"/>
          </mxGeometry>
        </mxCell>
        <mxCell id="BT1aQ9urPEgXNWsOUUMs-5" value="" style="endArrow=classic;html=1;exitX=0.75;exitY=1;exitDx=0;exitDy=0;strokeWidth=2;entryX=0.5;entryY=0;entryDx=0;entryDy=0;" edge="1" parent="1" source="BT1aQ9urPEgXNWsOUUMs-1" target="BT1aQ9urPEgXNWsOUUMs-3">
          <mxGeometry width="50" height="50" relative="1" as="geometry">
            <mxPoint x="490" y="220" as="sourcePoint"/>
            <mxPoint x="515" y="250" as="targetPoint"/>
          </mxGeometry>
        </mxCell>
        <mxCell id="BT1aQ9urPEgXNWsOUUMs-6" value="" style="endArrow=classic;html=1;exitX=0.25;exitY=1;exitDx=0;exitDy=0;entryX=0.5;entryY=0;entryDx=0;entryDy=0;strokeWidth=2;" edge="1" parent="1" source="BT1aQ9urPEgXNWsOUUMs-1" target="BT1aQ9urPEgXNWsOUUMs-8">
          <mxGeometry width="50" height="50" relative="1" as="geometry">
            <mxPoint x="240" y="170" as="sourcePoint"/>
            <mxPoint x="90" y="250" as="targetPoint"/>
          </mxGeometry>
        </mxCell>
        <mxCell id="BT1aQ9urPEgXNWsOUUMs-7" value="" style="endArrow=classic;html=1;strokeWidth=2;entryX=0.5;entryY=0;entryDx=0;entryDy=0;exitX=1;exitY=1;exitDx=0;exitDy=0;" edge="1" parent="1" source="BT1aQ9urPEgXNWsOUUMs-11" target="BT1aQ9urPEgXNWsOUUMs-9">
          <mxGeometry width="50" height="50" relative="1" as="geometry">
            <mxPoint x="180" y="360" as="sourcePoint"/>
            <mxPoint x="80" y="450" as="targetPoint"/>
          </mxGeometry>
        </mxCell>
        <mxCell id="BT1aQ9urPEgXNWsOUUMs-8" value="&lt;span style=&quot;white-space: normal&quot;&gt;1.1.1&lt;br&gt;&lt;/span&gt;Authenticate User" style="shape=process;whiteSpace=wrap;html=1;backgroundOutline=1;" vertex="1" parent="1">
          <mxGeometry x="185" y="250" width="90" height="80" as="geometry"/>
        </mxCell>
        <mxCell id="BT1aQ9urPEgXNWsOUUMs-9" value="1.1.1.2&lt;br&gt;Deny Access" style="shape=process;whiteSpace=wrap;html=1;backgroundOutline=1;" vertex="1" parent="1">
          <mxGeometry x="185" y="400" width="90" height="80" as="geometry"/>
        </mxCell>
        <mxCell id="BT1aQ9urPEgXNWsOUUMs-10" value="1.1.1.1&lt;br&gt;Allow Access" style="shape=process;whiteSpace=wrap;html=1;backgroundOutline=1;" vertex="1" parent="1">
          <mxGeometry x="80" y="400" width="90" height="80" as="geometry"/>
        </mxCell>
        <mxCell id="BT1aQ9urPEgXNWsOUUMs-11" value="" style="rhombus;whiteSpace=wrap;html=1;fillColor=#FFFFFF;" vertex="1" parent="1">
          <mxGeometry x="220" y="315" width="20" height="30" as="geometry"/>
        </mxCell>
        <mxCell id="BT1aQ9urPEgXNWsOUUMs-12" value="" style="endArrow=classic;html=1;" edge="1" parent="1">
          <mxGeometry width="50" height="50" relative="1" as="geometry">
            <mxPoint x="400" y="495" as="sourcePoint"/>
            <mxPoint x="400" y="495" as="targetPoint"/>
          </mxGeometry>
        </mxCell>
        <mxCell id="BT1aQ9urPEgXNWsOUUMs-13" value="" style="endArrow=classic;html=1;exitX=0;exitY=1;exitDx=0;exitDy=0;strokeWidth=2;entryX=0.5;entryY=0;entryDx=0;entryDy=0;" edge="1" parent="1" source="BT1aQ9urPEgXNWsOUUMs-16" target="BT1aQ9urPEgXNWsOUUMs-18">
          <mxGeometry width="50" height="50" relative="1" as="geometry">
            <mxPoint x="475" y="390" as="sourcePoint"/>
            <mxPoint x="310" y="420" as="targetPoint"/>
          </mxGeometry>
        </mxCell>
        <mxCell id="BT1aQ9urPEgXNWsOUUMs-14" value="" style="endArrow=classic;html=1;strokeWidth=2;exitX=1;exitY=1;exitDx=0;exitDy=0;entryX=0.5;entryY=0;entryDx=0;entryDy=0;" edge="1" parent="1" source="BT1aQ9urPEgXNWsOUUMs-16" target="BT1aQ9urPEgXNWsOUUMs-19">
          <mxGeometry width="50" height="50" relative="1" as="geometry">
            <mxPoint x="395" y="360" as="sourcePoint"/>
            <mxPoint x="430" y="410" as="targetPoint"/>
          </mxGeometry>
        </mxCell>
        <mxCell id="BT1aQ9urPEgXNWsOUUMs-15" value="&lt;span style=&quot;white-space: normal&quot;&gt;1.1.2&lt;br&gt;&lt;/span&gt;Authenticate User Type" style="shape=process;whiteSpace=wrap;html=1;backgroundOutline=1;" vertex="1" parent="1">
          <mxGeometry x="345" y="250" width="90" height="80" as="geometry"/>
        </mxCell>
        <mxCell id="BT1aQ9urPEgXNWsOUUMs-16" value="" style="rhombus;whiteSpace=wrap;html=1;fillColor=#FFFFFF;" vertex="1" parent="1">
          <mxGeometry x="380" y="315" width="20" height="30" as="geometry"/>
        </mxCell>
        <mxCell id="BT1aQ9urPEgXNWsOUUMs-17" value="" style="endArrow=classic;html=1;exitX=0.5;exitY=1;exitDx=0;exitDy=0;entryX=0.5;entryY=0;entryDx=0;entryDy=0;strokeWidth=2;" edge="1" parent="1" source="BT1aQ9urPEgXNWsOUUMs-1" target="BT1aQ9urPEgXNWsOUUMs-15">
          <mxGeometry width="50" height="50" relative="1" as="geometry">
            <mxPoint x="397.5" y="150" as="sourcePoint"/>
            <mxPoint x="192.5" y="270" as="targetPoint"/>
          </mxGeometry>
        </mxCell>
        <mxCell id="BT1aQ9urPEgXNWsOUUMs-18" value="1.1.1.1&lt;br&gt;Allow Access" style="shape=process;whiteSpace=wrap;html=1;backgroundOutline=1;" vertex="1" parent="1">
          <mxGeometry x="290" y="400" width="90" height="80" as="geometry"/>
        </mxCell>
        <mxCell id="BT1aQ9urPEgXNWsOUUMs-19" value="1.1.1.2&lt;br&gt;Deny Access" style="shape=process;whiteSpace=wrap;html=1;backgroundOutline=1;" vertex="1" parent="1">
          <mxGeometry x="400" y="400" width="90" height="80" as="geometry"/>
        </mxCell>
      </root>
    </mxGraphModel>
  </diagram>
  <diagram id="noVSwrxsb5jb9V1s53vI" name="8.2: Retrieve Dept Information">
    <mxGraphModel dx="1038" dy="580" grid="1" gridSize="10" guides="1" tooltips="1" connect="1" arrows="1" fold="1" page="1" pageScale="1" pageWidth="850" pageHeight="1100" math="0" shadow="0">
      <root>
        <mxCell id="vygolRGxCm583H4xdt0z-0"/>
        <mxCell id="vygolRGxCm583H4xdt0z-1" parent="vygolRGxCm583H4xdt0z-0"/>
        <mxCell id="1jjHSBB2l790MNxz8eVH-0" value="8.2&lt;br&gt;Retrieve Department Information" style="whiteSpace=wrap;html=1;aspect=fixed;" vertex="1" parent="vygolRGxCm583H4xdt0z-1">
          <mxGeometry x="355" y="50" width="80" height="80" as="geometry"/>
        </mxCell>
        <mxCell id="1jjHSBB2l790MNxz8eVH-1" value="8.2.2&lt;br&gt;Display Information of Department Home to be Edited" style="whiteSpace=wrap;html=1;aspect=fixed;" vertex="1" parent="vygolRGxCm583H4xdt0z-1">
          <mxGeometry x="410" y="250" width="90" height="90" as="geometry"/>
        </mxCell>
        <mxCell id="1jjHSBB2l790MNxz8eVH-2" value="" style="endArrow=classic;html=1;exitX=0.75;exitY=1;exitDx=0;exitDy=0;strokeWidth=2;entryX=0.5;entryY=0;entryDx=0;entryDy=0;" edge="1" parent="vygolRGxCm583H4xdt0z-1" source="1jjHSBB2l790MNxz8eVH-0" target="1jjHSBB2l790MNxz8eVH-1">
          <mxGeometry width="50" height="50" relative="1" as="geometry">
            <mxPoint x="490" y="220" as="sourcePoint"/>
            <mxPoint x="515" y="250" as="targetPoint"/>
          </mxGeometry>
        </mxCell>
        <mxCell id="1jjHSBB2l790MNxz8eVH-3" value="" style="endArrow=classic;html=1;exitX=0.25;exitY=1;exitDx=0;exitDy=0;entryX=0.5;entryY=0;entryDx=0;entryDy=0;strokeWidth=2;" edge="1" parent="vygolRGxCm583H4xdt0z-1" source="1jjHSBB2l790MNxz8eVH-0" target="1jjHSBB2l790MNxz8eVH-5">
          <mxGeometry width="50" height="50" relative="1" as="geometry">
            <mxPoint x="397.5" y="150" as="sourcePoint"/>
            <mxPoint x="390" y="250" as="targetPoint"/>
          </mxGeometry>
        </mxCell>
        <mxCell id="1jjHSBB2l790MNxz8eVH-4" value="" style="endArrow=classic;html=1;strokeWidth=2;entryX=0.5;entryY=0;entryDx=0;entryDy=0;exitX=0.5;exitY=1;exitDx=0;exitDy=0;" edge="1" parent="vygolRGxCm583H4xdt0z-1" source="1jjHSBB2l790MNxz8eVH-5" target="1jjHSBB2l790MNxz8eVH-6">
          <mxGeometry width="50" height="50" relative="1" as="geometry">
            <mxPoint x="360" y="330" as="sourcePoint"/>
            <mxPoint x="325" y="400" as="targetPoint"/>
          </mxGeometry>
        </mxCell>
        <mxCell id="1jjHSBB2l790MNxz8eVH-5" value="1.1.4&lt;br&gt;Get Required Information from Database" style="shape=process;whiteSpace=wrap;html=1;backgroundOutline=1;" vertex="1" parent="vygolRGxCm583H4xdt0z-1">
          <mxGeometry x="290" y="250" width="90" height="90" as="geometry"/>
        </mxCell>
        <mxCell id="1jjHSBB2l790MNxz8eVH-6" value="8.2.1.1&lt;br&gt;Retrieve Record of Selected Department" style="whiteSpace=wrap;html=1;aspect=fixed;" vertex="1" parent="vygolRGxCm583H4xdt0z-1">
          <mxGeometry x="295" y="390" width="80" height="80" as="geometry"/>
        </mxCell>
      </root>
    </mxGraphModel>
  </diagram>
  <diagram id="cvIHoRvNpLErwvL52O3p" name="8.3: Update Dept Record">
    <mxGraphModel dx="1038" dy="580" grid="1" gridSize="10" guides="1" tooltips="1" connect="1" arrows="1" fold="1" page="1" pageScale="1" pageWidth="850" pageHeight="1100" math="0" shadow="0">
      <root>
        <mxCell id="zPqOkiM8VrnQa2lOEWsN-0"/>
        <mxCell id="zPqOkiM8VrnQa2lOEWsN-1" parent="zPqOkiM8VrnQa2lOEWsN-0"/>
        <mxCell id="HdBRC72AOEr44ZeiQhKt-0" value="8.3&lt;br&gt;Update Department Record" style="whiteSpace=wrap;html=1;aspect=fixed;" vertex="1" parent="zPqOkiM8VrnQa2lOEWsN-1">
          <mxGeometry x="420" y="70" width="80" height="80" as="geometry"/>
        </mxCell>
        <mxCell id="HdBRC72AOEr44ZeiQhKt-1" value="" style="endArrow=classic;html=1;exitX=0.25;exitY=1;exitDx=0;exitDy=0;entryX=0.5;entryY=0;entryDx=0;entryDy=0;strokeWidth=2;" edge="1" parent="zPqOkiM8VrnQa2lOEWsN-1" source="HdBRC72AOEr44ZeiQhKt-0" target="HdBRC72AOEr44ZeiQhKt-2">
          <mxGeometry width="50" height="50" relative="1" as="geometry">
            <mxPoint x="310" y="190" as="sourcePoint"/>
            <mxPoint x="160" y="270" as="targetPoint"/>
          </mxGeometry>
        </mxCell>
        <mxCell id="HdBRC72AOEr44ZeiQhKt-2" value="&lt;span style=&quot;white-space: normal&quot;&gt;1.2.1&lt;br&gt;&lt;/span&gt;Retrieve Submitted Form Data" style="shape=process;whiteSpace=wrap;html=1;backgroundOutline=1;" vertex="1" parent="zPqOkiM8VrnQa2lOEWsN-1">
          <mxGeometry x="290" y="270" width="90" height="80" as="geometry"/>
        </mxCell>
        <mxCell id="HdBRC72AOEr44ZeiQhKt-3" value="&lt;span style=&quot;white-space: normal&quot;&gt;1.2.2&lt;br&gt;&lt;/span&gt;Verify Submitted Form Data" style="shape=process;whiteSpace=wrap;html=1;backgroundOutline=1;" vertex="1" parent="zPqOkiM8VrnQa2lOEWsN-1">
          <mxGeometry x="415" y="270" width="90" height="80" as="geometry"/>
        </mxCell>
        <mxCell id="HdBRC72AOEr44ZeiQhKt-4" value="" style="endArrow=classic;html=1;exitX=0.5;exitY=1;exitDx=0;exitDy=0;entryX=0.5;entryY=0;entryDx=0;entryDy=0;strokeWidth=2;" edge="1" parent="zPqOkiM8VrnQa2lOEWsN-1" source="HdBRC72AOEr44ZeiQhKt-0" target="HdBRC72AOEr44ZeiQhKt-3">
          <mxGeometry width="50" height="50" relative="1" as="geometry">
            <mxPoint x="467.5" y="170" as="sourcePoint"/>
            <mxPoint x="262.5" y="290" as="targetPoint"/>
          </mxGeometry>
        </mxCell>
        <mxCell id="HdBRC72AOEr44ZeiQhKt-5" value="" style="endArrow=classic;html=1;strokeWidth=2;entryX=0.5;entryY=0;entryDx=0;entryDy=0;exitX=0.75;exitY=1;exitDx=0;exitDy=0;" edge="1" parent="zPqOkiM8VrnQa2lOEWsN-1" source="HdBRC72AOEr44ZeiQhKt-0" target="HdBRC72AOEr44ZeiQhKt-6">
          <mxGeometry width="50" height="50" relative="1" as="geometry">
            <mxPoint x="480" y="130" as="sourcePoint"/>
            <mxPoint x="560" y="270" as="targetPoint"/>
          </mxGeometry>
        </mxCell>
        <mxCell id="HdBRC72AOEr44ZeiQhKt-6" value="8.3.3&lt;br&gt;Update Department Record with Submitted Form Data" style="whiteSpace=wrap;html=1;aspect=fixed;" vertex="1" parent="zPqOkiM8VrnQa2lOEWsN-1">
          <mxGeometry x="540" y="270" width="90" height="90" as="geometry"/>
        </mxCell>
        <mxCell id="HdBRC72AOEr44ZeiQhKt-7" value="" style="endArrow=classic;html=1;curved=1;" edge="1" parent="zPqOkiM8VrnQa2lOEWsN-1">
          <mxGeometry width="50" height="50" relative="1" as="geometry">
            <mxPoint x="455" y="149.9999999999999" as="sourcePoint"/>
            <mxPoint x="430" y="150" as="targetPoint"/>
            <Array as="points">
              <mxPoint x="490" y="160"/>
              <mxPoint x="470" y="180"/>
              <mxPoint x="410" y="180"/>
              <mxPoint x="400" y="160"/>
            </Array>
          </mxGeometry>
        </mxCell>
      </root>
    </mxGraphModel>
  </diagram>
</mxfile>
